# xmcd
#
# Track frame offsets: 
#        150
#        19860
#        37402
#        58277
#        76042
#        95742
#        119442
#        138915
#        154972
#        173712
#        198912
#        216917
#
# Disc length: 3096 seconds
#
# Revision: 0
# Processed by: cddbd v1.5.2PL0 Copyright (c) Steve Scherf et al.
# Submitted via: ExactAudioCopy v0.99pb5
#
DISCID=ac0c160c
DTITLE=Itumiray - Folklore Bolivia Vol. 2
DYEAR=2001
DGENRE=Folk
TTITLE0=Dorado
TTITLE1=Flor de Canela
TTITLE2=María Amanecer
TTITLE3=Yamor
TTITLE4=Niña de las Trenzas Negras
TTITLE5=Mamita
TTITLE6=Elay Pué
TTITLE7=Porque estás triste
TTITLE8=San Juanito
TTITLE9=Estrella fugas
TTITLE10=Sol naciente
TTITLE11=Andes de Bolivia
EXTD=
EXTT0=
EXTT1=
EXTT2=
EXTT3=
EXTT4=
EXTT5=
EXTT6=
EXTT7=
EXTT8=
EXTT9=
EXTT10=
EXTT11=
PLAYORDER=
